<svg xmlns:xlink="http://www.w3.org/1999/xlink" class="menu__icon" xmlns="http://www.w3.org/2000/svg" width="120" height="15" viewBox="-52.5 0 120 15"><path d="M13.79 5.677c.763-.763.996-1.854.703-2.818l-1.515 1.513-1.478-.396-.396-1.477L12.62.984c-.965-.293-2.055-.06-2.818.704-.764.764-.877 1.735-.507 2.626L7.718 5.888c-.023-.06-.057-.117-.106-.165L7.19 5.3c-.182-.18-.474-.18-.655 0l-.36.373-2.358-2.36-.128-.457h-.002c-.013-.095-.056-.187-.13-.26L1.493 1.092C1.313.913 1.075.857.963.97l-.52.52c-.112.112-.057.35.123.53l1.502 2.064c.074.073.167.117.262.13l.452.082L5.16 6.674l-.385.388c-.18.18-.18.474 0 .653l.422.424c.048.048.105.08.164.102l-3.586 3.583-.016.02c-.52.522-.52 1.364 0 1.886.52.52 1.358.52 1.878.005l.028-.02 3.25-3.264 3.35 3.355c.448.445 1.172.445 1.62-.002l1.384-1.383c.445-.447.445-1.173 0-1.62L9.91 7.444l1.254-1.26c.89.37 1.86.258 2.626-.506zM2.792 13.3c-.227.087-.48-.028-.564-.258-.085-.226.03-.48.256-.563.227-.087.48.027.564.255.086.226-.028.48-.256.565zm2.883-7.383c-.085.084-.224.084-.31 0L1.05 1.597l.14-.14c.056-.06.178-.03.272.063l1.814 1.525c.038.04.06.085.067.135.008.063.034.122.076.173l2.253 2.253c.087.087.087.226.002.31zm1.512.437l-.716.716-.443-.446.715-.715c.105-.106.274-.106.38 0l.065.064c.105.105.105.275 0 .38zm5.68 4.916c.203.205.203.54 0 .744l-.7.7L7.29 7.84c.218-.245.606-.224.856.03l2.863 2.86c.064.065.17.065.237 0 .064-.064.064-.172 0-.236l-2.86-2.86c-.256-.258-.278-.653-.024-.868l4.504 4.504z"></path>
      <line fill="none" stroke="#000000" x1="-42.5" y1="7.25" x2="-4.5" y2="7.25"></line>
      <line fill="none" stroke="#000000" x1="19.5" y1="7.25" x2="57.5" y2="7.25"></line>
    </svg>