<svg class="svg" xmlns="http://www.w3.org/2000/svg" xmlns:xlink="http://www.w3.org/1999/xlink" viewBox="0 0 64 64" data-v-8764fc43="" width="292"  height="292" ><title data-v-8764fc43="">Technology</title><g id="Technology" data-v-8764fc43=""><rect class="stroke bg-outer" x="14" y="14" width="37" height="36" rx="4" data-v-8764fc43="" stroke="#121629" fill="#232946" stroke-width="0.5px"></rect><rect class="stroke bg-inner" x="18" y="18" width="28" height="28" data-v-8764fc43="" stroke="#121629" fill="#EEBBC3" stroke-width="0.5px"></rect><rect class="bg-inner__line" x="18.25" y="18.25" width="27.5" height="2" data-v-8764fc43="" fill="#BF959B"></rect><path class="stroke gear" d="M39.7,29.86l2-1.13-2-3.46L37.71,26.4A8.06,8.06,0,0,0,34,24.26V22H30v2.26a8.06,8.06,0,0,0-3.71,2.14l-1.95-1.13-2,3.46,2,1.13a7.78,7.78,0,0,0,0,4.28l-2,1.13,2,3.46,1.95-1.13A8.06,8.06,0,0,0,30,39.74V42h4V39.74a8.06,8.06,0,0,0,3.71-2.14l1.95,1.13,2-3.46-2-1.13A7.78,7.78,0,0,0,39.7,29.86Z" data-v-8764fc43="" stroke="#121629" fill="#232946" stroke-width="0.5px"></path><circle class="stroke bg-inner" cx="32" cy="32" r="3" data-v-8764fc43="" stroke="#121629" fill="#EEBBC3" stroke-width="0.5px"></circle><path class="outside-path" d="M57,30c.44,0,.49-.12,2.34-1.5A3,3,0,1,0,58,26c0,1.28.74.44-1.33,2H51V24c5.27,0,5.44.17,5.85-.47l3.5-5.6a3,3,0,1,0-1.69-1.07L55.45,22H51V18a5,5,0,0,0-5-5H42V9h7a1,1,0,0,0,1-1V5.82a3,3,0,1,0-2,0V7H41a1,1,0,0,0-1,1v5H36V7.33l1.11-1.48A3,3,0,1,0,35.5,4.66C33.6,7.2,34,5.43,34,13H30V7c0-.44-.12-.49-1.5-2.34A3,3,0,1,0,26,6c1.28,0,.44-.74,2,1.33V13H24c0-5.27.17-5.44-.47-5.85l-5.6-3.5a3,3,0,1,0-1.07,1.69L22,8.55V13H18a5,5,0,0,0-5,5v4H9V15a1,1,0,0,0-1-1H5.82a3,3,0,1,0,0,2H7v7a1,1,0,0,0,1,1h5v4H7.33L5.85,26.89A3,3,0,1,0,4.66,28.5C7.2,30.4,5.43,30,13,30v4H7c-.44,0-.49.12-2.34,1.5A3,3,0,1,0,6,38c0-1.28-.74-.44,1.33-2H13v4c-5.27,0-5.44-.17-5.85.47l-3.5,5.6a3,3,0,1,0,1.69,1.07L8.55,42H13v4a5,5,0,0,0,5,5h4v4H15a1,1,0,0,0-1,1v2.18a3,3,0,1,0,2,0V57h7a1,1,0,0,0,1-1V51h4v5.67l-1.11,1.48a3,3,0,1,0,1.61,1.19C30.4,56.8,30,58.57,30,51h4v6c0,.44.12.49,1.5,2.34A3,3,0,1,0,38,58c-1.28,0-.44.74-2-1.33V51h4c0,5.27-.17,5.44.47,5.85l5.6,3.5a3,3,0,1,0,1.07-1.69L42,55.45V51h4a5,5,0,0,0,5-5V42h4v7a1,1,0,0,0,1,1h2.18a3,3,0,1,0,0-2H57V41a1,1,0,0,0-1-1H51V36h5.67l1.48,1.11a3,3,0,1,0,1.19-1.61C56.8,33.6,58.57,34,51,34V30Zm4-5a1,1,0,0,1,0,2A1,1,0,0,1,61,25Zm0-11a1,1,0,0,1,0,2A1,1,0,0,1,61,14ZM49,2a1,1,0,0,1,0,2A1,1,0,0,1,49,2ZM38,2a1,1,0,0,1,0,2A1,1,0,0,1,38,2ZM25,3a1,1,0,0,1,2,0A1,1,0,0,1,25,3ZM15,4a1,1,0,0,1,0-2A1,1,0,0,1,15,4ZM3,16a1,1,0,0,1,0-2A1,1,0,0,1,3,16ZM2,26a1,1,0,0,1,2,0A1,1,0,0,1,2,26ZM3,39a1,1,0,0,1,0-2A1,1,0,0,1,3,39ZM3,50a1,1,0,0,1,0-2A1,1,0,0,1,3,50ZM15,62a1,1,0,0,1,0-2A1,1,0,0,1,15,62Zm11,0a1,1,0,0,1,0-2A1,1,0,0,1,26,62Zm13-1a1,1,0,0,1-2,0A1,1,0,0,1,39,61Zm10-1a1,1,0,0,1,0,2A1,1,0,0,1,49,60ZM61,48a1,1,0,0,1,0,2A1,1,0,0,1,61,48Zm1-10a1,1,0,0,1-2,0A1,1,0,0,1,62,38ZM49,46a3,3,0,0,1-3,3H18a3,3,0,0,1-3-3V18a3,3,0,0,1,3-3H46a3,3,0,0,1,3,3Z" data-v-8764fc43="" stroke="#B8C1EC" fill="#121629" stroke-width="1.5px"></path><circle class="stroke circle" cx="38" cy="61" r="2" data-v-8764fc43="" stroke="#121629" fill="#F8E1E4" stroke-width="0.5px"></circle><circle class="stroke circle" cx="49" cy="61" r="2" data-v-8764fc43="" stroke="#121629" fill="#FAECEE" stroke-width="0.5px"></circle><circle class="stroke circle" cx="26" cy="61" r="2" data-v-8764fc43="" stroke="#121629" fill="#F3D0D6" stroke-width="0.5px"></circle><circle class="stroke circle" cx="15" cy="61" r="2" data-v-8764fc43="" stroke="#121629" fill="#F7DFE2" stroke-width="0.5px"></circle><circle class="stroke circle" cx="26" cy="3" r="2" data-v-8764fc43="" stroke="#121629" fill="#EFBFC7" stroke-width="0.5px"></circle><circle class="stroke circle" cx="15" cy="3" r="2" data-v-8764fc43="" stroke="#121629" fill="#EEBCC4" stroke-width="0.5px"></circle><circle class="stroke circle" cx="38" cy="3" r="2" data-v-8764fc43="" stroke="#121629" fill="#FAECED" stroke-width="0.5px"></circle><circle class="stroke circle" cx="49" cy="3" r="2" data-v-8764fc43="" stroke="#121629" fill="#FDF8F8" stroke-width="0.5px"></circle><circle class="stroke circle" cx="3" cy="38" r="2" data-v-8764fc43="" stroke="#121629" fill="#F0C2C9" stroke-width="0.5px"></circle><circle class="stroke circle" cx="3" cy="49" r="2" data-v-8764fc43="" stroke="#121629" fill="#F0C2C9" stroke-width="0.5px"></circle><circle class="stroke circle" cx="3" cy="26" r="2" data-v-8764fc43="" stroke="#121629" fill="#EEBBC3" stroke-width="0.5px"></circle><circle class="stroke circle" cx="3" cy="15" r="2" data-v-8764fc43="" stroke="#121629" fill="#EEBBC3" stroke-width="0.5px"></circle><circle class="stroke circle" cx="61" cy="26" r="2" data-v-8764fc43="" stroke="#121629" fill="#EEBBC3" stroke-width="0.5px"></circle><circle class="stroke circle" cx="61" cy="15" r="2" data-v-8764fc43="" stroke="#121629" fill="#EEBBC3" stroke-width="0.5px"></circle><circle class="stroke circle" cx="61" cy="38" r="2" data-v-8764fc43="" stroke="#121629" fill="#EEBBC3" stroke-width="0.5px"></circle><circle class="stroke circle" cx="61" cy="49" r="2" data-v-8764fc43="" stroke="#121629" fill="#FF0000" stroke-width="0.5px"></circle></g></svg>